<svg width="128" height="215" viewBox="0 0 128 215" fill="none" xmlns="http://www.w3.org/2000/svg">
<path d="M52.5904 1.41214C45.5064 5.39651 47.4137 13.6641 55.5875 14.6602C62.5806 15.5567 67.1217 21.9317 67.1217 30.8965C67.1217 34.4825 64.942 40.1602 55.2242 62.0742C48.6851 76.8164 38.8765 98.9297 33.5181 111.281C28.1597 123.633 18.442 146.045 11.9029 161.186C-0.811928 190.471 -1.72013 193.459 1.73104 198.24C2.82088 199.635 6.18124 202.225 9.26913 203.818C32.8824 216.469 77.8385 218.361 107.537 208.201C120.342 203.719 127.063 199.037 127.063 194.455C127.063 191.766 121.886 176.824 96.6383 106.799C85.7398 76.6172 76.6578 51.2168 76.4762 50.3203C75.8404 47.8301 82.9244 39.961 88.5553 36.9727C92.3697 34.9805 94.1861 34.4825 97.0924 34.9805C99.0904 35.2793 102.36 35.877 104.358 36.1758C109.081 36.9727 111.624 34.7813 111.624 30C111.624 27.6094 110.897 26.1153 108.899 24.2227C101.724 17.6485 91.2799 19.1426 81.1988 28.1075L77.566 31.295L77.9293 26.9121C78.565 17.25 74.3873 7.48831 67.5758 3.1055C62.1265 -0.281219 56.7681 -0.978485 52.5904 1.41214ZM72.7525 98.0332C80.109 106.201 73.7515 120.346 63.3072 118.951C52.4088 117.457 49.1392 103.213 58.0396 96.5391C62.4898 93.1524 68.9381 93.8496 72.7525 98.0332ZM93.8228 145.547C99.6353 148.236 101.997 155.309 99.3629 161.484C96.275 168.557 87.647 170.35 82.3795 165.17C79.6549 162.58 79.3824 161.684 79.3824 156.803C79.3824 152.32 79.8365 150.826 81.6529 148.635C85.4674 144.053 88.8277 143.256 93.8228 145.547ZM46.6871 153.516C52.6812 156.305 55.4967 167.959 51.773 174.633C49.775 178.219 44.9615 181.008 40.6021 181.008C27.3424 181.008 23.3463 160.488 35.3346 153.914C39.149 151.723 42.5094 151.623 46.6871 153.516Z" fill="white"/>
</svg>
